<svg width="75" height="84" viewBox="0 0 75 84" fill="none" xmlns="http://www.w3.org/2000/svg">
<path d="M15.1979 66.4996C29.6487 57.212 44.2297 47.9243 58.6805 38.6367C58.5503 38.2442 58.2899 37.721 58.1597 37.3285C52.1711 38.375 46.0523 39.4216 40.0637 40.3372C36.5486 40.8605 33.0336 41.2529 29.5185 41.1221C22.228 40.8605 19.6243 35.7588 23.3997 29.4798C24.7016 27.3869 26.2638 25.163 28.0864 23.5933C37.0694 16.0062 46.1825 8.68075 55.1654 1.22448C55.8164 0.701233 56.5975 0.177994 57.3786 0.0471823C58.0295 -0.0836295 59.2012 0.0471743 59.5918 0.570422C60.1125 1.35529 60.5031 2.79423 59.9824 3.31748C58.5503 5.14884 56.988 6.71861 55.2956 8.28835C48.2655 14.4365 40.975 20.5846 33.9449 26.8636C31.8619 28.695 30.1694 31.1804 27.4355 34.4507C30.9506 34.4507 33.0336 34.7123 35.1166 34.4507C44.3599 32.881 53.6032 31.0496 62.8465 29.4798C64.9295 29.0874 67.0125 28.5642 69.0955 28.9566C70.9181 29.2182 73.2615 30.1339 74.303 31.5728C75.8652 33.6658 74.5633 36.0205 72.7407 37.721C71.0483 39.2907 69.3559 40.8605 67.403 42.1686C55.8164 49.7557 44.3599 57.2119 32.7732 64.799C30.9506 65.9763 29.1279 67.2844 26.1336 69.2466C33.9449 69.3774 39.8033 64.9298 47.7447 67.5461C45.6617 69.5083 44.49 70.9472 43.058 71.7321C31.6015 77.357 19.3639 81.1505 6.86588 83.7667C1.65838 84.9441 -1.20574 81.543 0.486696 76.3105C1.26782 73.9559 2.30932 71.6013 3.87157 69.6391C8.03757 64.145 12.3338 58.7817 16.7601 53.4184C17.5412 52.5027 19.3639 51.7179 20.2752 51.9795C22.228 52.7644 21.9676 54.7265 21.0563 56.2963C19.1035 59.6974 16.8903 63.0985 14.8073 66.3688C14.8073 66.1072 15.0677 66.3688 15.1979 66.4996Z" fill="#FD9F10"/>
</svg>
