<svg width="127" height="34" viewBox="0 0 127 34" fill="none" xmlns="http://www.w3.org/2000/svg">
<g clip-path="url(#clip0_147_2100)">
<path d="M104.871 20.7792C100.841 23.1601 97.7662 24.9999 94.7972 26.7315C93.7368 27.3809 92.6765 27.922 91.7221 28.6796C90.3436 29.6536 88.435 30.7359 89.4953 32.7921C90.5557 34.7402 92.5704 33.8744 94.0549 33.3333C95.6455 32.9004 97.2361 32.0345 98.7206 31.277C105.613 27.922 112.505 24.4588 119.292 20.9956C121.094 20.0216 123.003 19.1558 124.594 17.8571C127.987 15.2597 127.775 12.6623 124.063 10.7143C119.08 8.11687 113.99 5.73592 108.9 3.35498C106.779 2.27273 104.553 1.19048 102.326 0.432909C101.053 9.90183e-06 99.5689 0.108225 98.1904 0C97.7663 3.03029 99.4628 3.67965 100.947 4.43722C104.659 6.49349 108.476 8.44155 112.187 10.4978C113.46 11.2554 114.838 12.013 116.111 13.7446C114.202 13.961 112.399 14.2857 110.491 14.3939C96.1757 15.1515 81.9667 15.9091 67.6517 16.6666C46.8684 17.7489 26.1912 18.8311 5.4079 20.0216C3.7113 20.1298 2.01471 20.7792 0 21.3203C1.90867 24.2424 4.13545 23.593 5.93809 23.4848C16.1177 23.2683 26.4033 22.8354 36.5828 22.5108C58.5325 21.7532 80.4822 20.9956 102.432 20.2381C102.962 20.3463 103.28 20.4545 104.871 20.7792Z" fill="#D0D5DD"/>
</g>
<defs>
<clipPath id="clip0_147_2100">
<rect width="127" height="34" fill="white" transform="matrix(-1 0 0 1 127 0)"/>
</clipPath>
</defs>
</svg>
