<svg width="159" height="42" viewBox="0 0 159 42" fill="none" xmlns="http://www.w3.org/2000/svg">
<g clip-path="url(#clip0_147_2137)">
<path d="M131.295 25.6684C126.25 28.6096 122.4 30.8823 118.683 33.0213C117.356 33.8234 116.028 34.4919 114.833 35.4277C113.107 36.6309 110.718 37.9678 112.045 40.5079C113.373 42.9143 115.895 41.8448 117.754 41.1764C119.745 40.6416 121.736 39.5721 123.595 38.6363C132.224 34.4919 140.853 30.2138 149.35 25.9358C151.606 24.7326 153.996 23.663 155.987 22.0588C160.235 18.8502 159.97 15.6417 155.324 13.2353C149.084 10.0267 142.712 7.08555 136.34 4.14438C133.684 2.80749 130.897 1.4706 128.109 0.53477C126.516 1.22317e-05 124.657 0.133689 122.931 0C122.4 3.7433 124.524 4.54545 126.383 5.48128C131.029 8.02138 135.809 10.4278 140.455 12.9679C142.048 13.9037 143.774 14.8395 145.367 16.9786C142.977 17.246 140.72 17.647 138.331 17.7807C120.409 18.7165 102.62 19.6524 84.6978 20.5882C58.6778 21.9251 32.7905 23.262 6.77052 24.7325C4.64644 24.8662 2.52235 25.6684 0 26.3368C2.38959 29.9465 5.17746 29.1443 7.4343 29.0106C20.1788 28.7432 33.056 28.2085 45.8005 27.8074C73.2808 26.8716 100.761 25.9358 128.241 24.9999C128.905 25.1336 129.304 25.2673 131.295 25.6684Z" fill="black"/>
</g>
<defs>
<clipPath id="clip0_147_2137">
<rect width="159" height="42" fill="white" transform="matrix(-1 0 0 1 159 0)"/>
</clipPath>
</defs>
</svg>
