<svg width="127" height="34" viewBox="0 0 127 34" fill="none" xmlns="http://www.w3.org/2000/svg">
<g clip-path="url(#clip0_147_2102)">
<path d="M104.871 13.2208C100.841 10.8399 97.7662 9.00006 94.7972 7.26846C93.7368 6.61911 92.6765 6.078 91.7221 5.32043C90.3436 4.34641 88.435 3.26414 89.4953 1.20787C90.5557 -0.740181 92.5704 0.125618 94.0549 0.666744C95.6455 1.09964 97.2361 1.96545 98.7206 2.72302C105.613 6.07799 112.505 9.54119 119.292 13.0044C121.094 13.9784 123.003 14.8442 124.594 16.1429C127.987 18.7403 127.775 21.3377 124.063 23.2857C119.08 25.8831 113.99 28.2641 108.9 30.645C106.779 31.7273 104.553 32.8095 102.326 33.5671C101.053 34 99.5689 33.8918 98.1904 34C97.7663 30.9697 99.4628 30.3204 100.947 29.5628C104.659 27.5065 108.476 25.5585 112.187 23.5022C113.46 22.7446 114.838 21.987 116.111 20.2554C114.202 20.039 112.399 19.7143 110.491 19.6061C96.1757 18.8485 81.9667 18.0909 67.6517 17.3334C46.8684 16.2511 26.1912 15.1689 5.4079 13.9784C3.7113 13.8702 2.01471 13.2208 0 12.6797C1.90867 9.75763 4.13545 10.407 5.93809 10.5152C16.1177 10.7317 26.4033 11.1646 36.5828 11.4892C58.5325 12.2468 80.4822 13.0044 102.432 13.7619C102.962 13.6537 103.28 13.5455 104.871 13.2208Z" fill="#D0D5DD"/>
</g>
<defs>
<clipPath id="clip0_147_2102">
<rect width="127" height="34" fill="white" transform="matrix(-1 0 0 -1 127 34)"/>
</clipPath>
</defs>
</svg>
