<svg width="510" height="544" viewBox="0 0 510 544" fill="none" xmlns="http://www.w3.org/2000/svg">
<circle cx="254.5" cy="263.5" r="251.5" fill="#BF85FA"/>
<path d="M461.5 16L466.909 33.0906L484 38.5L466.909 43.9094L461.5 61L456.091 43.9094L439 38.5L456.091 33.0906L461.5 16Z" fill="#FD9F10"/>
<path d="M432 0L433.923 6.07667L440 8L433.923 9.92333L432 16L430.077 9.92333L424 8L430.077 6.07667L432 0Z" fill="#FD9F10"/>
<path d="M75.5 468L80.9094 485.091L98 490.5L80.9094 495.909L75.5 513L70.0906 495.909L53 490.5L70.0906 485.091L75.5 468Z" fill="#FD9F10"/>
<path d="M109 507L111.645 514.216L120 516.5L111.645 518.784L109 526L106.355 518.784L98 516.5L106.355 514.216L109 507Z" fill="#FD9F10"/>
</svg>
