<svg width="453" height="468" viewBox="0 0 453 468" fill="none" xmlns="http://www.w3.org/2000/svg">
<g clip-path="url(#clip0_311_955)">
<path d="M119.52 437.236C119.216 437.704 119.221 437.93 119.053 438.082C104.618 445.549 87.8337 447.589 68.5016 442.769C63.6188 441.561 58.9449 439.396 54.6834 436.511C45.4999 430.381 41.2611 421.296 43.8965 413.529C45.2393 409.47 47.4733 405.944 51.8652 403.798C54.4671 404.621 57.0418 405.506 59.5262 406.129C63.5809 407.129 67.3015 407.013 70.3081 405.242C72.5857 403.979 73.4018 402.087 72.4616 400.484C71.2275 398.381 68.8204 397.343 66.4894 397.31C63.2488 397.26 60.0712 397.535 57.0384 397.948C55.0829 398.227 53.2493 398.933 51.4701 399.513C42.218 394.251 41.0023 385.721 48.5249 379.389C50.0092 379.73 51.5795 380.107 53.091 380.385C58.7073 381.311 63.5824 380.645 67.02 377.638C68.3334 376.484 69.2714 375.018 68.0101 372.978C67.0427 371.438 64.6355 370.4 61.7932 370.372C57.3032 370.381 53.5772 371.692 50.1135 373.34C48.9317 373.953 47.75 374.566 46.6542 375.215C32.1536 367.466 25.7644 352.965 35.9716 345.845C34.8268 345.426 33.9084 344.955 33.2837 344.985C32.5459 345.041 31.9028 345.587 31.486 346.08C27.7982 350.849 26.5088 356.204 30.0707 362.603C32.6923 367.399 36.6089 371.557 41.5124 375.318C42.2045 375.84 42.8966 376.363 43.5615 376.949C43.6475 376.986 43.6791 377.15 43.8282 377.513C43.4974 378.044 43.1981 378.738 42.7269 379.358C37.2763 387.033 38.467 392.783 47.5265 401.328C46.8562 401.937 46.1314 402.672 45.3479 403.307C41.0181 407.2 38.7515 411.984 38.8648 417.868C39.0206 427.437 46.1606 436.651 57.7795 442.335C64.0911 445.431 70.6346 447.28 77.3869 448.171C93.7111 450.273 108.083 448.39 119.969 441.395C120.617 441.076 121.205 440.656 121.853 440.337C121.966 440.311 122.165 440.322 122.763 440.355C122.526 442.797 121.397 444.704 120.355 446.649C119.425 448.567 118.297 450.475 117.2 452.546C119.517 453.32 120.757 452.808 121.736 451.958C122.796 450.919 124.027 449.953 124.657 448.729C126.298 445.396 127.881 441.964 129.119 438.383C130.031 435.559 128.38 433.949 124.854 433.85C117.377 433.694 109.873 433.6 102.368 433.506C101.146 433.503 100.042 433.7 98.5391 433.875C99.9135 435.889 101.507 435.978 102.987 436.092C108.391 436.327 113.713 436.752 119.52 437.236ZM64.615 373.758C61.9642 377.777 57.0118 378.859 51.6001 376.75C55.4305 374.96 58.9487 373.185 64.615 373.758ZM68.7454 400.827C65.9368 404.03 61.7363 404.314 56.6554 401.674C60.4402 400.463 63.917 399.493 68.7454 400.827Z" fill="#FD9F10"/>
</g>
<path d="M440 0L443.125 9.87459L453 13L443.125 16.1254L440 26L436.875 16.1254L427 13L436.875 9.87459L440 0Z" fill="#FD9F10"/>
<path d="M414 426L417.125 435.875L427 439L417.125 442.125L414 452L410.875 442.125L401 439L410.875 435.875L414 426Z" fill="#FD9F10"/>
<path d="M105 52L108.125 61.8746L118 65L108.125 68.1254L105 78L101.875 68.1254L92 65L101.875 61.8746L105 52Z" fill="#FD9F10"/>
<defs>
<clipPath id="clip0_311_955">
<rect width="80.0403" height="127.012" fill="white" transform="matrix(-0.39597 0.918263 0.918263 0.39597 31.6936 344)"/>
</clipPath>
</defs>
</svg>
