<svg width="271" height="53" viewBox="0 0 271 53" fill="none" xmlns="http://www.w3.org/2000/svg">
<g filter="url(#filter0_d_332_1102)">
<rect x="4" width="263" height="45" rx="22.5" fill="#344054" shape-rendering="crispEdges"/>
<path d="M31.264 17.38V25.396C31.264 26.388 30.96 27.172 30.352 27.748C29.7547 28.324 28.9653 28.612 27.984 28.612C27.0027 28.612 26.208 28.324 25.6 27.748C25.0027 27.172 24.704 26.388 24.704 25.396H26.544C26.5547 25.8867 26.6773 26.276 26.912 26.564C27.1573 26.852 27.5147 26.996 27.984 26.996C28.4533 26.996 28.8107 26.852 29.056 26.564C29.3013 26.2653 29.424 25.876 29.424 25.396V17.38H31.264ZM38.0553 28.644C37.2233 28.644 36.4713 28.4573 35.7993 28.084C35.1273 27.7 34.5993 27.1667 34.2153 26.484C33.8313 25.7907 33.6393 24.9907 33.6393 24.084C33.6393 23.188 33.8366 22.3933 34.2313 21.7C34.6259 21.0067 35.1646 20.4733 35.8473 20.1C36.5299 19.7267 37.2926 19.54 38.1353 19.54C38.9779 19.54 39.7406 19.7267 40.4233 20.1C41.1059 20.4733 41.6446 21.0067 42.0393 21.7C42.4339 22.3933 42.6313 23.188 42.6313 24.084C42.6313 24.98 42.4286 25.7747 42.0233 26.468C41.6179 27.1613 41.0633 27.7 40.3593 28.084C39.6659 28.4573 38.8979 28.644 38.0553 28.644ZM38.0553 27.06C38.5246 27.06 38.9619 26.948 39.3673 26.724C39.7833 26.5 40.1193 26.164 40.3753 25.716C40.6313 25.268 40.7593 24.724 40.7593 24.084C40.7593 23.444 40.6366 22.9053 40.3913 22.468C40.1459 22.02 39.8206 21.684 39.4153 21.46C39.0099 21.236 38.5726 21.124 38.1033 21.124C37.6339 21.124 37.1966 21.236 36.7913 21.46C36.3966 21.684 36.0819 22.02 35.8473 22.468C35.6126 22.9053 35.4953 23.444 35.4953 24.084C35.4953 25.0333 35.7353 25.7693 36.2153 26.292C36.7059 26.804 37.3193 27.06 38.0553 27.06ZM45.3624 18.516C45.0317 18.516 44.7544 18.404 44.5304 18.18C44.3064 17.956 44.1944 17.6787 44.1944 17.348C44.1944 17.0173 44.3064 16.74 44.5304 16.516C44.7544 16.292 45.0317 16.18 45.3624 16.18C45.6824 16.18 45.9544 16.292 46.1784 16.516C46.4024 16.74 46.5144 17.0173 46.5144 17.348C46.5144 17.6787 46.4024 17.956 46.1784 18.18C45.9544 18.404 45.6824 18.516 45.3624 18.516ZM46.2584 19.684V28.5H44.4344V19.684H46.2584ZM53.1011 19.54C53.7945 19.54 54.4131 19.684 54.9571 19.972C55.5118 20.26 55.9438 20.6867 56.2531 21.252C56.5625 21.8173 56.7171 22.5 56.7171 23.3V28.5H54.9091V23.572C54.9091 22.7827 54.7118 22.18 54.3171 21.764C53.9225 21.3373 53.3838 21.124 52.7011 21.124C52.0185 21.124 51.4745 21.3373 51.0691 21.764C50.6745 22.18 50.4771 22.7827 50.4771 23.572V28.5H48.6531V19.684H50.4771V20.692C50.7758 20.3293 51.1545 20.0467 51.6131 19.844C52.0825 19.6413 52.5785 19.54 53.1011 19.54ZM67.024 28.644C66.192 28.644 65.44 28.4573 64.768 28.084C64.096 27.7 63.568 27.1667 63.184 26.484C62.8 25.7907 62.608 24.9907 62.608 24.084C62.608 23.188 62.8053 22.3933 63.2 21.7C63.5947 21.0067 64.1333 20.4733 64.816 20.1C65.4987 19.7267 66.2613 19.54 67.104 19.54C67.9467 19.54 68.7093 19.7267 69.392 20.1C70.0747 20.4733 70.6133 21.0067 71.008 21.7C71.4027 22.3933 71.6 23.188 71.6 24.084C71.6 24.98 71.3973 25.7747 70.992 26.468C70.5867 27.1613 70.032 27.7 69.328 28.084C68.6347 28.4573 67.8667 28.644 67.024 28.644ZM67.024 27.06C67.4933 27.06 67.9307 26.948 68.336 26.724C68.752 26.5 69.088 26.164 69.344 25.716C69.6 25.268 69.728 24.724 69.728 24.084C69.728 23.444 69.6053 22.9053 69.36 22.468C69.1147 22.02 68.7893 21.684 68.384 21.46C67.9787 21.236 67.5413 21.124 67.072 21.124C66.6027 21.124 66.1653 21.236 65.76 21.46C65.3653 21.684 65.0507 22.02 64.816 22.468C64.5813 22.9053 64.464 23.444 64.464 24.084C64.464 25.0333 64.704 25.7693 65.184 26.292C65.6747 26.804 66.288 27.06 67.024 27.06ZM81.3871 19.684V28.5H79.5631V27.46C79.2751 27.8227 78.8965 28.1107 78.4271 28.324C77.9685 28.5267 77.4778 28.628 76.9551 28.628C76.2618 28.628 75.6378 28.484 75.0831 28.196C74.5391 27.908 74.1071 27.4813 73.7871 26.916C73.4778 26.3507 73.3231 25.668 73.3231 24.868V19.684H75.1311V24.596C75.1311 25.3853 75.3285 25.9933 75.7231 26.42C76.1178 26.836 76.6565 27.044 77.3391 27.044C78.0218 27.044 78.5605 26.836 78.9551 26.42C79.3605 25.9933 79.5631 25.3853 79.5631 24.596V19.684H81.3871ZM85.6178 20.964C85.8844 20.516 86.2364 20.1693 86.6738 19.924C87.1218 19.668 87.6498 19.54 88.2578 19.54V21.428H87.7938C87.0791 21.428 86.5351 21.6093 86.1618 21.972C85.7991 22.3347 85.6178 22.964 85.6178 23.86V28.5H83.7938V19.684H85.6178V20.964ZM101.879 17.38C103.063 17.38 104.098 17.6093 104.983 18.068C105.879 18.516 106.567 19.1667 107.047 20.02C107.538 20.8627 107.783 21.8493 107.783 22.98C107.783 24.1107 107.538 25.092 107.047 25.924C106.567 26.756 105.879 27.396 104.983 27.844C104.098 28.2813 103.063 28.5 101.879 28.5H98.2469V17.38H101.879ZM101.879 27.012C103.18 27.012 104.178 26.66 104.871 25.956C105.564 25.252 105.911 24.26 105.911 22.98C105.911 21.6893 105.564 20.6813 104.871 19.956C104.178 19.2307 103.18 18.868 101.879 18.868H100.071V27.012H101.879ZM110.519 18.516C110.188 18.516 109.911 18.404 109.687 18.18C109.463 17.956 109.351 17.6787 109.351 17.348C109.351 17.0173 109.463 16.74 109.687 16.516C109.911 16.292 110.188 16.18 110.519 16.18C110.839 16.18 111.111 16.292 111.335 16.516C111.559 16.74 111.671 17.0173 111.671 17.348C111.671 17.6787 111.559 17.956 111.335 18.18C111.111 18.404 110.839 18.516 110.519 18.516ZM111.415 19.684V28.5H109.591V19.684H111.415ZM117.009 28.644C116.316 28.644 115.692 28.5213 115.137 28.276C114.593 28.02 114.161 27.6787 113.841 27.252C113.521 26.8147 113.351 26.3293 113.329 25.796H115.217C115.249 26.1693 115.425 26.484 115.745 26.74C116.076 26.9853 116.487 27.108 116.977 27.108C117.489 27.108 117.884 27.012 118.161 26.82C118.449 26.6173 118.593 26.3613 118.593 26.052C118.593 25.7213 118.433 25.476 118.113 25.316C117.804 25.156 117.308 24.98 116.625 24.788C115.964 24.6067 115.425 24.4307 115.009 24.26C114.593 24.0893 114.231 23.828 113.921 23.476C113.623 23.124 113.473 22.66 113.473 22.084C113.473 21.6147 113.612 21.188 113.889 20.804C114.167 20.4093 114.561 20.1 115.073 19.876C115.596 19.652 116.193 19.54 116.865 19.54C117.868 19.54 118.673 19.796 119.281 20.308C119.9 20.8093 120.231 21.4973 120.273 22.372H118.449C118.417 21.9773 118.257 21.6627 117.969 21.428C117.681 21.1933 117.292 21.076 116.801 21.076C116.321 21.076 115.953 21.1667 115.697 21.348C115.441 21.5293 115.313 21.7693 115.313 22.068C115.313 22.3027 115.399 22.5 115.569 22.66C115.74 22.82 115.948 22.948 116.193 23.044C116.439 23.1293 116.801 23.2413 117.281 23.38C117.921 23.5507 118.444 23.7267 118.849 23.908C119.265 24.0787 119.623 24.3347 119.921 24.676C120.22 25.0173 120.375 25.4707 120.385 26.036C120.385 26.5373 120.247 26.9853 119.969 27.38C119.692 27.7747 119.297 28.084 118.785 28.308C118.284 28.532 117.692 28.644 117.009 28.644ZM121.748 24.084C121.748 23.1773 121.93 22.3827 122.292 21.7C122.666 21.0067 123.178 20.4733 123.828 20.1C124.479 19.7267 125.226 19.54 126.068 19.54C127.135 19.54 128.015 19.796 128.708 20.308C129.412 20.8093 129.887 21.5293 130.132 22.468H128.164C128.004 22.0307 127.748 21.6893 127.396 21.444C127.044 21.1987 126.602 21.076 126.068 21.076C125.322 21.076 124.724 21.3427 124.276 21.876C123.839 22.3987 123.62 23.1347 123.62 24.084C123.62 25.0333 123.839 25.7747 124.276 26.308C124.724 26.8413 125.322 27.108 126.068 27.108C127.124 27.108 127.823 26.644 128.164 25.716H130.132C129.876 26.612 129.396 27.3267 128.692 27.86C127.988 28.3827 127.114 28.644 126.068 28.644C125.226 28.644 124.479 28.4573 123.828 28.084C123.178 27.7 122.666 27.1667 122.292 26.484C121.93 25.7907 121.748 24.9907 121.748 24.084ZM135.774 28.644C134.942 28.644 134.19 28.4573 133.518 28.084C132.846 27.7 132.318 27.1667 131.934 26.484C131.55 25.7907 131.358 24.9907 131.358 24.084C131.358 23.188 131.555 22.3933 131.95 21.7C132.345 21.0067 132.883 20.4733 133.566 20.1C134.249 19.7267 135.011 19.54 135.854 19.54C136.697 19.54 137.459 19.7267 138.142 20.1C138.825 20.4733 139.363 21.0067 139.758 21.7C140.153 22.3933 140.35 23.188 140.35 24.084C140.35 24.98 140.147 25.7747 139.742 26.468C139.337 27.1613 138.782 27.7 138.078 28.084C137.385 28.4573 136.617 28.644 135.774 28.644ZM135.774 27.06C136.243 27.06 136.681 26.948 137.086 26.724C137.502 26.5 137.838 26.164 138.094 25.716C138.35 25.268 138.478 24.724 138.478 24.084C138.478 23.444 138.355 22.9053 138.11 22.468C137.865 22.02 137.539 21.684 137.134 21.46C136.729 21.236 136.291 21.124 135.822 21.124C135.353 21.124 134.915 21.236 134.51 21.46C134.115 21.684 133.801 22.02 133.566 22.468C133.331 22.9053 133.214 23.444 133.214 24.084C133.214 25.0333 133.454 25.7693 133.934 26.292C134.425 26.804 135.038 27.06 135.774 27.06ZM143.977 20.964C144.244 20.516 144.596 20.1693 145.033 19.924C145.481 19.668 146.009 19.54 146.617 19.54V21.428H146.153C145.438 21.428 144.894 21.6093 144.521 21.972C144.158 22.3347 143.977 22.964 143.977 23.86V28.5H142.153V19.684H143.977V20.964ZM147.686 24.052C147.686 23.1667 147.867 22.3827 148.23 21.7C148.603 21.0173 149.104 20.4893 149.734 20.116C150.374 19.732 151.083 19.54 151.862 19.54C152.438 19.54 153.003 19.668 153.558 19.924C154.123 20.1693 154.571 20.5 154.902 20.916V16.66H156.742V28.5H154.902V27.172C154.603 27.5987 154.187 27.9507 153.654 28.228C153.131 28.5053 152.528 28.644 151.846 28.644C151.078 28.644 150.374 28.452 149.734 28.068C149.104 27.6733 148.603 27.1293 148.23 26.436C147.867 25.732 147.686 24.9373 147.686 24.052ZM154.902 24.084C154.902 23.476 154.774 22.948 154.518 22.5C154.272 22.052 153.947 21.7107 153.542 21.476C153.136 21.2413 152.699 21.124 152.23 21.124C151.76 21.124 151.323 21.2413 150.918 21.476C150.512 21.7 150.182 22.036 149.926 22.484C149.68 22.9213 149.558 23.444 149.558 24.052C149.558 24.66 149.68 25.1933 149.926 25.652C150.182 26.1107 150.512 26.4627 150.918 26.708C151.334 26.9427 151.771 27.06 152.23 27.06C152.699 27.06 153.136 26.9427 153.542 26.708C153.947 26.4733 154.272 26.132 154.518 25.684C154.774 25.2253 154.902 24.692 154.902 24.084ZM166.958 28.612C166.211 28.612 165.539 28.484 164.942 28.228C164.344 27.9613 163.875 27.588 163.534 27.108C163.192 26.628 163.022 26.068 163.022 25.428H164.974C165.016 25.908 165.203 26.3027 165.534 26.612C165.875 26.9213 166.35 27.076 166.958 27.076C167.587 27.076 168.078 26.9267 168.43 26.628C168.782 26.3187 168.958 25.924 168.958 25.444C168.958 25.0707 168.846 24.7667 168.622 24.532C168.408 24.2973 168.136 24.116 167.806 23.988C167.486 23.86 167.038 23.7213 166.462 23.572C165.736 23.38 165.144 23.188 164.686 22.996C164.238 22.7933 163.854 22.484 163.534 22.068C163.214 21.652 163.054 21.0973 163.054 20.404C163.054 19.764 163.214 19.204 163.534 18.724C163.854 18.244 164.302 17.876 164.878 17.62C165.454 17.364 166.12 17.236 166.878 17.236C167.955 17.236 168.835 17.508 169.518 18.052C170.211 18.5853 170.595 19.3213 170.67 20.26H168.654C168.622 19.8547 168.43 19.508 168.078 19.22C167.726 18.932 167.262 18.788 166.686 18.788C166.163 18.788 165.736 18.9213 165.406 19.188C165.075 19.4547 164.91 19.8387 164.91 20.34C164.91 20.6813 165.011 20.964 165.214 21.188C165.427 21.4013 165.694 21.572 166.014 21.7C166.334 21.828 166.771 21.9667 167.326 22.116C168.062 22.3187 168.659 22.5213 169.118 22.724C169.587 22.9267 169.982 23.2413 170.302 23.668C170.632 24.084 170.798 24.644 170.798 25.348C170.798 25.9133 170.643 26.4467 170.334 26.948C170.035 27.4493 169.592 27.8547 169.006 28.164C168.43 28.4627 167.747 28.612 166.958 28.612ZM181.03 23.876C181.03 24.2067 181.009 24.5053 180.966 24.772H174.23C174.283 25.476 174.545 26.0413 175.014 26.468C175.483 26.8947 176.059 27.108 176.742 27.108C177.723 27.108 178.417 26.6973 178.822 25.876H180.79C180.523 26.6867 180.038 27.3533 179.334 27.876C178.641 28.388 177.777 28.644 176.742 28.644C175.899 28.644 175.142 28.4573 174.47 28.084C173.809 27.7 173.286 27.1667 172.902 26.484C172.529 25.7907 172.342 24.9907 172.342 24.084C172.342 23.1773 172.523 22.3827 172.886 21.7C173.259 21.0067 173.777 20.4733 174.438 20.1C175.11 19.7267 175.878 19.54 176.742 19.54C177.574 19.54 178.315 19.7213 178.966 20.084C179.617 20.4467 180.123 20.9587 180.486 21.62C180.849 22.2707 181.03 23.0227 181.03 23.876ZM179.126 23.3C179.115 22.628 178.875 22.0893 178.406 21.684C177.937 21.2787 177.355 21.076 176.662 21.076C176.033 21.076 175.494 21.2787 175.046 21.684C174.598 22.0787 174.331 22.6173 174.246 23.3H179.126ZM184.649 20.964C184.916 20.516 185.268 20.1693 185.705 19.924C186.153 19.668 186.681 19.54 187.289 19.54V21.428H186.825C186.11 21.428 185.566 21.6093 185.193 21.972C184.83 22.3347 184.649 22.964 184.649 23.86V28.5H182.825V19.684H184.649V20.964ZM192.374 26.868L194.87 19.684H196.806L193.446 28.5H191.27L187.926 19.684H189.878L192.374 26.868ZM206.264 23.876C206.264 24.2067 206.243 24.5053 206.2 24.772H199.464C199.518 25.476 199.779 26.0413 200.248 26.468C200.718 26.8947 201.294 27.108 201.976 27.108C202.958 27.108 203.651 26.6973 204.056 25.876H206.024C205.758 26.6867 205.272 27.3533 204.568 27.876C203.875 28.388 203.011 28.644 201.976 28.644C201.134 28.644 200.376 28.4573 199.704 28.084C199.043 27.7 198.52 27.1667 198.136 26.484C197.763 25.7907 197.576 24.9907 197.576 24.084C197.576 23.1773 197.758 22.3827 198.12 21.7C198.494 21.0067 199.011 20.4733 199.672 20.1C200.344 19.7267 201.112 19.54 201.976 19.54C202.808 19.54 203.55 19.7213 204.2 20.084C204.851 20.4467 205.358 20.9587 205.72 21.62C206.083 22.2707 206.264 23.0227 206.264 23.876ZM204.36 23.3C204.35 22.628 204.11 22.0893 203.64 21.684C203.171 21.2787 202.59 21.076 201.896 21.076C201.267 21.076 200.728 21.2787 200.28 21.684C199.832 22.0787 199.566 22.6173 199.48 23.3H204.36ZM209.883 20.964C210.15 20.516 210.502 20.1693 210.939 19.924C211.387 19.668 211.915 19.54 212.523 19.54V21.428H212.059C211.345 21.428 210.801 21.6093 210.427 21.972C210.065 22.3347 209.883 22.964 209.883 23.86V28.5H208.059V19.684H209.883V20.964Z" fill="white"/>
<rect x="223" y="4.5" width="36" height="36" rx="18" fill="white"/>
<path d="M233.99 29.5102L248.01 15.4894M248.01 15.4894L240.641 15.4356M248.01 15.4894L248.064 22.8584" stroke="black" stroke-width="1.25"/>
</g>
<defs>
<filter id="filter0_d_332_1102" x="0" y="0" width="271" height="53" filterUnits="userSpaceOnUse" color-interpolation-filters="sRGB">
<feFlood flood-opacity="0" result="BackgroundImageFix"/>
<feColorMatrix in="SourceAlpha" type="matrix" values="0 0 0 0 0 0 0 0 0 0 0 0 0 0 0 0 0 0 127 0" result="hardAlpha"/>
<feOffset dy="4"/>
<feGaussianBlur stdDeviation="2"/>
<feComposite in2="hardAlpha" operator="out"/>
<feColorMatrix type="matrix" values="0 0 0 0 0 0 0 0 0 0 0 0 0 0 0 0 0 0 0.25 0"/>
<feBlend mode="normal" in2="BackgroundImageFix" result="effect1_dropShadow_332_1102"/>
<feBlend mode="normal" in="SourceGraphic" in2="effect1_dropShadow_332_1102" result="shape"/>
</filter>
</defs>
</svg>
