<svg width="183" height="45" viewBox="0 0 183 45" fill="none" xmlns="http://www.w3.org/2000/svg">
<rect width="183" height="45" rx="22.5" fill="#FD9F10"/>
<path d="M38.264 17.38V25.396C38.264 26.388 37.96 27.172 37.352 27.748C36.7547 28.324 35.9653 28.612 34.984 28.612C34.0027 28.612 33.208 28.324 32.6 27.748C32.0027 27.172 31.704 26.388 31.704 25.396H33.544C33.5547 25.8867 33.6773 26.276 33.912 26.564C34.1573 26.852 34.5147 26.996 34.984 26.996C35.4533 26.996 35.8107 26.852 36.056 26.564C36.3013 26.2653 36.424 25.876 36.424 25.396V17.38H38.264ZM45.0553 28.644C44.2233 28.644 43.4713 28.4573 42.7993 28.084C42.1273 27.7 41.5993 27.1667 41.2153 26.484C40.8313 25.7907 40.6393 24.9907 40.6393 24.084C40.6393 23.188 40.8366 22.3933 41.2313 21.7C41.6259 21.0067 42.1646 20.4733 42.8473 20.1C43.5299 19.7267 44.2926 19.54 45.1353 19.54C45.9779 19.54 46.7406 19.7267 47.4233 20.1C48.1059 20.4733 48.6446 21.0067 49.0393 21.7C49.4339 22.3933 49.6313 23.188 49.6313 24.084C49.6313 24.98 49.4286 25.7747 49.0233 26.468C48.6179 27.1613 48.0633 27.7 47.3593 28.084C46.6659 28.4573 45.8979 28.644 45.0553 28.644ZM45.0553 27.06C45.5246 27.06 45.9619 26.948 46.3673 26.724C46.7833 26.5 47.1193 26.164 47.3753 25.716C47.6313 25.268 47.7593 24.724 47.7593 24.084C47.7593 23.444 47.6366 22.9053 47.3913 22.468C47.1459 22.02 46.8206 21.684 46.4153 21.46C46.0099 21.236 45.5726 21.124 45.1033 21.124C44.6339 21.124 44.1966 21.236 43.7913 21.46C43.3966 21.684 43.0819 22.02 42.8473 22.468C42.6126 22.9053 42.4953 23.444 42.4953 24.084C42.4953 25.0333 42.7353 25.7693 43.2153 26.292C43.7059 26.804 44.3193 27.06 45.0553 27.06ZM52.3624 18.516C52.0317 18.516 51.7544 18.404 51.5304 18.18C51.3064 17.956 51.1944 17.6787 51.1944 17.348C51.1944 17.0173 51.3064 16.74 51.5304 16.516C51.7544 16.292 52.0317 16.18 52.3624 16.18C52.6824 16.18 52.9544 16.292 53.1784 16.516C53.4024 16.74 53.5144 17.0173 53.5144 17.348C53.5144 17.6787 53.4024 17.956 53.1784 18.18C52.9544 18.404 52.6824 18.516 52.3624 18.516ZM53.2584 19.684V28.5H51.4344V19.684H53.2584ZM60.1011 19.54C60.7945 19.54 61.4131 19.684 61.9571 19.972C62.5118 20.26 62.9438 20.6867 63.2531 21.252C63.5625 21.8173 63.7171 22.5 63.7171 23.3V28.5H61.9091V23.572C61.9091 22.7827 61.7118 22.18 61.3171 21.764C60.9225 21.3373 60.3838 21.124 59.7011 21.124C59.0185 21.124 58.4745 21.3373 58.0691 21.764C57.6745 22.18 57.4771 22.7827 57.4771 23.572V28.5H55.6531V19.684H57.4771V20.692C57.7758 20.3293 58.1545 20.0467 58.6131 19.844C59.0825 19.6413 59.5785 19.54 60.1011 19.54ZM84.68 17.38L81.384 28.5H79.32L76.984 20.084L74.504 28.5L72.456 28.516L69.304 17.38H71.24L73.544 26.436L76.04 17.38H78.088L80.408 26.388L82.728 17.38H84.68ZM85.5764 24.052C85.5764 23.1667 85.7577 22.3827 86.1204 21.7C86.4937 21.0173 86.995 20.4893 87.6244 20.116C88.2644 19.732 88.9684 19.54 89.7364 19.54C90.4297 19.54 91.0324 19.6787 91.5444 19.956C92.067 20.2227 92.483 20.5587 92.7924 20.964V19.684H94.6324V28.5H92.7924V27.188C92.483 27.604 92.0617 27.9507 91.5284 28.228C90.995 28.5053 90.387 28.644 89.7044 28.644C88.947 28.644 88.2537 28.452 87.6244 28.068C86.995 27.6733 86.4937 27.1293 86.1204 26.436C85.7577 25.732 85.5764 24.9373 85.5764 24.052ZM92.7924 24.084C92.7924 23.476 92.6644 22.948 92.4084 22.5C92.163 22.052 91.8377 21.7107 91.4324 21.476C91.027 21.2413 90.5897 21.124 90.1204 21.124C89.651 21.124 89.2137 21.2413 88.8084 21.476C88.403 21.7 88.0724 22.036 87.8164 22.484C87.571 22.9213 87.4484 23.444 87.4484 24.052C87.4484 24.66 87.571 25.1933 87.8164 25.652C88.0724 26.1107 88.403 26.4627 88.8084 26.708C89.2244 26.9427 89.6617 27.06 90.1204 27.06C90.5897 27.06 91.027 26.9427 91.4324 26.708C91.8377 26.4733 92.163 26.132 92.4084 25.684C92.6644 25.2253 92.7924 24.692 92.7924 24.084ZM97.9561 18.516C97.6255 18.516 97.3481 18.404 97.1241 18.18C96.9001 17.956 96.7881 17.6787 96.7881 17.348C96.7881 17.0173 96.9001 16.74 97.1241 16.516C97.3481 16.292 97.6255 16.18 97.9561 16.18C98.2761 16.18 98.5481 16.292 98.7721 16.516C98.9961 16.74 99.1081 17.0173 99.1081 17.348C99.1081 17.6787 98.9961 17.956 98.7721 18.18C98.5481 18.404 98.2761 18.516 97.9561 18.516ZM98.8521 19.684V28.5H97.0281V19.684H98.8521ZM103.375 21.172V26.052C103.375 26.3827 103.45 26.6227 103.599 26.772C103.759 26.9107 104.026 26.98 104.399 26.98H105.519V28.5H104.079C103.258 28.5 102.628 28.308 102.191 27.924C101.754 27.54 101.535 26.916 101.535 26.052V21.172H100.495V19.684H101.535V17.492H103.375V19.684H105.519V21.172H103.375ZM109.024 16.66V28.5H107.2V16.66H109.024ZM112.347 18.516C112.016 18.516 111.739 18.404 111.515 18.18C111.291 17.956 111.179 17.6787 111.179 17.348C111.179 17.0173 111.291 16.74 111.515 16.516C111.739 16.292 112.016 16.18 112.347 16.18C112.667 16.18 112.939 16.292 113.163 16.516C113.387 16.74 113.499 17.0173 113.499 17.348C113.499 17.6787 113.387 17.956 113.163 18.18C112.939 18.404 112.667 18.516 112.347 18.516ZM113.243 19.684V28.5H111.419V19.684H113.243ZM118.838 28.644C118.144 28.644 117.52 28.5213 116.966 28.276C116.422 28.02 115.99 27.6787 115.67 27.252C115.35 26.8147 115.179 26.3293 115.158 25.796H117.046C117.078 26.1693 117.254 26.484 117.574 26.74C117.904 26.9853 118.315 27.108 118.806 27.108C119.318 27.108 119.712 27.012 119.99 26.82C120.278 26.6173 120.422 26.3613 120.422 26.052C120.422 25.7213 120.262 25.476 119.942 25.316C119.632 25.156 119.136 24.98 118.454 24.788C117.792 24.6067 117.254 24.4307 116.838 24.26C116.422 24.0893 116.059 23.828 115.75 23.476C115.451 23.124 115.302 22.66 115.302 22.084C115.302 21.6147 115.44 21.188 115.718 20.804C115.995 20.4093 116.39 20.1 116.902 19.876C117.424 19.652 118.022 19.54 118.694 19.54C119.696 19.54 120.502 19.796 121.11 20.308C121.728 20.8093 122.059 21.4973 122.102 22.372H120.278C120.246 21.9773 120.086 21.6627 119.798 21.428C119.51 21.1933 119.12 21.076 118.63 21.076C118.15 21.076 117.782 21.1667 117.526 21.348C117.27 21.5293 117.142 21.7693 117.142 22.068C117.142 22.3027 117.227 22.5 117.398 22.66C117.568 22.82 117.776 22.948 118.022 23.044C118.267 23.1293 118.63 23.2413 119.11 23.38C119.75 23.5507 120.272 23.7267 120.678 23.908C121.094 24.0787 121.451 24.3347 121.75 24.676C122.048 25.0173 122.203 25.4707 122.214 26.036C122.214 26.5373 122.075 26.9853 121.798 27.38C121.52 27.7747 121.126 28.084 120.614 28.308C120.112 28.532 119.52 28.644 118.838 28.644ZM126.312 21.172V26.052C126.312 26.3827 126.387 26.6227 126.536 26.772C126.696 26.9107 126.963 26.98 127.336 26.98H128.456V28.5H127.016C126.195 28.5 125.566 28.308 125.128 27.924C124.691 27.54 124.472 26.916 124.472 26.052V21.172H123.432V19.684H124.472V17.492H126.312V19.684H128.456V21.172H126.312Z" fill="white"/>
<rect x="139" y="4.5" width="36" height="36" rx="18" fill="white"/>
<path d="M149.99 29.5104L164.01 15.4896M164.01 15.4896L156.641 15.4358M164.01 15.4896L164.064 22.8586" stroke="black" stroke-width="1.25"/>
</svg>
