<svg width="271" height="53" viewBox="0 0 271 53" fill="none" xmlns="http://www.w3.org/2000/svg">
<g filter="url(#filter0_d_147_2148)">
<rect x="4" width="263" height="45" rx="22.5" fill="#FD9F10" shape-rendering="crispEdges"/>
<path d="M43.264 17.38V25.396C43.264 26.388 42.96 27.172 42.352 27.748C41.7547 28.324 40.9653 28.612 39.984 28.612C39.0027 28.612 38.208 28.324 37.6 27.748C37.0027 27.172 36.704 26.388 36.704 25.396H38.544C38.5547 25.8867 38.6773 26.276 38.912 26.564C39.1573 26.852 39.5147 26.996 39.984 26.996C40.4533 26.996 40.8107 26.852 41.056 26.564C41.3013 26.2653 41.424 25.876 41.424 25.396V17.38H43.264ZM50.0553 28.644C49.2233 28.644 48.4713 28.4573 47.7993 28.084C47.1273 27.7 46.5993 27.1667 46.2153 26.484C45.8313 25.7907 45.6393 24.9907 45.6393 24.084C45.6393 23.188 45.8366 22.3933 46.2313 21.7C46.6259 21.0067 47.1646 20.4733 47.8473 20.1C48.5299 19.7267 49.2926 19.54 50.1353 19.54C50.9779 19.54 51.7406 19.7267 52.4233 20.1C53.1059 20.4733 53.6446 21.0067 54.0393 21.7C54.4339 22.3933 54.6313 23.188 54.6313 24.084C54.6313 24.98 54.4286 25.7747 54.0233 26.468C53.6179 27.1613 53.0633 27.7 52.3593 28.084C51.6659 28.4573 50.8979 28.644 50.0553 28.644ZM50.0553 27.06C50.5246 27.06 50.9619 26.948 51.3673 26.724C51.7833 26.5 52.1193 26.164 52.3753 25.716C52.6313 25.268 52.7593 24.724 52.7593 24.084C52.7593 23.444 52.6366 22.9053 52.3913 22.468C52.1459 22.02 51.8206 21.684 51.4153 21.46C51.0099 21.236 50.5726 21.124 50.1033 21.124C49.6339 21.124 49.1966 21.236 48.7913 21.46C48.3966 21.684 48.0819 22.02 47.8473 22.468C47.6126 22.9053 47.4953 23.444 47.4953 24.084C47.4953 25.0333 47.7353 25.7693 48.2153 26.292C48.7059 26.804 49.3193 27.06 50.0553 27.06ZM57.3624 18.516C57.0317 18.516 56.7544 18.404 56.5304 18.18C56.3064 17.956 56.1944 17.6787 56.1944 17.348C56.1944 17.0173 56.3064 16.74 56.5304 16.516C56.7544 16.292 57.0317 16.18 57.3624 16.18C57.6824 16.18 57.9544 16.292 58.1784 16.516C58.4024 16.74 58.5144 17.0173 58.5144 17.348C58.5144 17.6787 58.4024 17.956 58.1784 18.18C57.9544 18.404 57.6824 18.516 57.3624 18.516ZM58.2584 19.684V28.5H56.4344V19.684H58.2584ZM65.1011 19.54C65.7945 19.54 66.4131 19.684 66.9571 19.972C67.5118 20.26 67.9438 20.6867 68.2531 21.252C68.5625 21.8173 68.7171 22.5 68.7171 23.3V28.5H66.9091V23.572C66.9091 22.7827 66.7118 22.18 66.3171 21.764C65.9225 21.3373 65.3838 21.124 64.7011 21.124C64.0185 21.124 63.4745 21.3373 63.0691 21.764C62.6745 22.18 62.4771 22.7827 62.4771 23.572V28.5H60.6531V19.684H62.4771V20.692C62.7758 20.3293 63.1545 20.0467 63.6131 19.844C64.0825 19.6413 64.5785 19.54 65.1011 19.54ZM79.024 28.644C78.192 28.644 77.44 28.4573 76.768 28.084C76.096 27.7 75.568 27.1667 75.184 26.484C74.8 25.7907 74.608 24.9907 74.608 24.084C74.608 23.188 74.8053 22.3933 75.2 21.7C75.5947 21.0067 76.1333 20.4733 76.816 20.1C77.4987 19.7267 78.2613 19.54 79.104 19.54C79.9467 19.54 80.7093 19.7267 81.392 20.1C82.0747 20.4733 82.6133 21.0067 83.008 21.7C83.4027 22.3933 83.6 23.188 83.6 24.084C83.6 24.98 83.3973 25.7747 82.992 26.468C82.5867 27.1613 82.032 27.7 81.328 28.084C80.6347 28.4573 79.8667 28.644 79.024 28.644ZM79.024 27.06C79.4933 27.06 79.9307 26.948 80.336 26.724C80.752 26.5 81.088 26.164 81.344 25.716C81.6 25.268 81.728 24.724 81.728 24.084C81.728 23.444 81.6053 22.9053 81.36 22.468C81.1147 22.02 80.7893 21.684 80.384 21.46C79.9787 21.236 79.5413 21.124 79.072 21.124C78.6027 21.124 78.1653 21.236 77.76 21.46C77.3653 21.684 77.0507 22.02 76.816 22.468C76.5813 22.9053 76.464 23.444 76.464 24.084C76.464 25.0333 76.704 25.7693 77.184 26.292C77.6747 26.804 78.288 27.06 79.024 27.06ZM93.3871 19.684V28.5H91.5631V27.46C91.2751 27.8227 90.8965 28.1107 90.4271 28.324C89.9685 28.5267 89.4778 28.628 88.9551 28.628C88.2618 28.628 87.6378 28.484 87.0831 28.196C86.5391 27.908 86.1071 27.4813 85.7871 26.916C85.4778 26.3507 85.3231 25.668 85.3231 24.868V19.684H87.1311V24.596C87.1311 25.3853 87.3285 25.9933 87.7231 26.42C88.1178 26.836 88.6565 27.044 89.3391 27.044C90.0218 27.044 90.5605 26.836 90.9551 26.42C91.3605 25.9933 91.5631 25.3853 91.5631 24.596V19.684H93.3871ZM97.6178 20.964C97.8844 20.516 98.2364 20.1693 98.6738 19.924C99.1218 19.668 99.6498 19.54 100.258 19.54V21.428H99.7938C99.0791 21.428 98.5351 21.6093 98.1618 21.972C97.7991 22.3347 97.6178 22.964 97.6178 23.86V28.5H95.7938V19.684H97.6178V20.964ZM124.727 17.38L121.431 28.5H119.367L117.031 20.084L114.551 28.5L112.503 28.516L109.351 17.38H111.287L113.591 26.436L116.087 17.38H118.135L120.455 26.388L122.775 17.38H124.727ZM125.623 24.052C125.623 23.1667 125.805 22.3827 126.167 21.7C126.541 21.0173 127.042 20.4893 127.671 20.116C128.311 19.732 129.015 19.54 129.783 19.54C130.477 19.54 131.079 19.6787 131.591 19.956C132.114 20.2227 132.53 20.5587 132.839 20.964V19.684H134.679V28.5H132.839V27.188C132.53 27.604 132.109 27.9507 131.575 28.228C131.042 28.5053 130.434 28.644 129.751 28.644C128.994 28.644 128.301 28.452 127.671 28.068C127.042 27.6733 126.541 27.1293 126.167 26.436C125.805 25.732 125.623 24.9373 125.623 24.052ZM132.839 24.084C132.839 23.476 132.711 22.948 132.455 22.5C132.21 22.052 131.885 21.7107 131.479 21.476C131.074 21.2413 130.637 21.124 130.167 21.124C129.698 21.124 129.261 21.2413 128.855 21.476C128.45 21.7 128.119 22.036 127.863 22.484C127.618 22.9213 127.495 23.444 127.495 24.052C127.495 24.66 127.618 25.1933 127.863 25.652C128.119 26.1107 128.45 26.4627 128.855 26.708C129.271 26.9427 129.709 27.06 130.167 27.06C130.637 27.06 131.074 26.9427 131.479 26.708C131.885 26.4733 132.21 26.132 132.455 25.684C132.711 25.2253 132.839 24.692 132.839 24.084ZM138.003 18.516C137.672 18.516 137.395 18.404 137.171 18.18C136.947 17.956 136.835 17.6787 136.835 17.348C136.835 17.0173 136.947 16.74 137.171 16.516C137.395 16.292 137.672 16.18 138.003 16.18C138.323 16.18 138.595 16.292 138.819 16.516C139.043 16.74 139.155 17.0173 139.155 17.348C139.155 17.6787 139.043 17.956 138.819 18.18C138.595 18.404 138.323 18.516 138.003 18.516ZM138.899 19.684V28.5H137.075V19.684H138.899ZM143.422 21.172V26.052C143.422 26.3827 143.496 26.6227 143.646 26.772C143.806 26.9107 144.072 26.98 144.446 26.98H145.566V28.5H144.126C143.304 28.5 142.675 28.308 142.238 27.924C141.8 27.54 141.582 26.916 141.582 26.052V21.172H140.542V19.684H141.582V17.492H143.422V19.684H145.566V21.172H143.422ZM149.071 16.66V28.5H147.247V16.66H149.071ZM152.394 18.516C152.063 18.516 151.786 18.404 151.562 18.18C151.338 17.956 151.226 17.6787 151.226 17.348C151.226 17.0173 151.338 16.74 151.562 16.516C151.786 16.292 152.063 16.18 152.394 16.18C152.714 16.18 152.986 16.292 153.21 16.516C153.434 16.74 153.546 17.0173 153.546 17.348C153.546 17.6787 153.434 17.956 153.21 18.18C152.986 18.404 152.714 18.516 152.394 18.516ZM153.29 19.684V28.5H151.466V19.684H153.29ZM158.884 28.644C158.191 28.644 157.567 28.5213 157.012 28.276C156.468 28.02 156.036 27.6787 155.716 27.252C155.396 26.8147 155.226 26.3293 155.204 25.796H157.092C157.124 26.1693 157.3 26.484 157.62 26.74C157.951 26.9853 158.362 27.108 158.852 27.108C159.364 27.108 159.759 27.012 160.036 26.82C160.324 26.6173 160.468 26.3613 160.468 26.052C160.468 25.7213 160.308 25.476 159.988 25.316C159.679 25.156 159.183 24.98 158.5 24.788C157.839 24.6067 157.3 24.4307 156.884 24.26C156.468 24.0893 156.106 23.828 155.796 23.476C155.498 23.124 155.348 22.66 155.348 22.084C155.348 21.6147 155.487 21.188 155.764 20.804C156.042 20.4093 156.436 20.1 156.948 19.876C157.471 19.652 158.068 19.54 158.74 19.54C159.743 19.54 160.548 19.796 161.156 20.308C161.775 20.8093 162.106 21.4973 162.148 22.372H160.324C160.292 21.9773 160.132 21.6627 159.844 21.428C159.556 21.1933 159.167 21.076 158.676 21.076C158.196 21.076 157.828 21.1667 157.572 21.348C157.316 21.5293 157.188 21.7693 157.188 22.068C157.188 22.3027 157.274 22.5 157.444 22.66C157.615 22.82 157.823 22.948 158.068 23.044C158.314 23.1293 158.676 23.2413 159.156 23.38C159.796 23.5507 160.319 23.7267 160.724 23.908C161.14 24.0787 161.498 24.3347 161.796 24.676C162.095 25.0173 162.25 25.4707 162.26 26.036C162.26 26.5373 162.122 26.9853 161.844 27.38C161.567 27.7747 161.172 28.084 160.66 28.308C160.159 28.532 159.567 28.644 158.884 28.644ZM166.359 21.172V26.052C166.359 26.3827 166.434 26.6227 166.583 26.772C166.743 26.9107 167.01 26.98 167.383 26.98H168.503V28.5H167.063C166.242 28.5 165.613 28.308 165.175 27.924C164.738 27.54 164.519 26.916 164.519 26.052V21.172H163.479V19.684H164.519V17.492H166.359V19.684H168.503V21.172H166.359ZM178.789 19.54C179.482 19.54 180.101 19.684 180.645 19.972C181.199 20.26 181.631 20.6867 181.941 21.252C182.25 21.8173 182.405 22.5 182.405 23.3V28.5H180.597V23.572C180.597 22.7827 180.399 22.18 180.005 21.764C179.61 21.3373 179.071 21.124 178.389 21.124C177.706 21.124 177.162 21.3373 176.757 21.764C176.362 22.18 176.165 22.7827 176.165 23.572V28.5H174.341V19.684H176.165V20.692C176.463 20.3293 176.842 20.0467 177.301 19.844C177.77 19.6413 178.266 19.54 178.789 19.54ZM188.555 28.644C187.723 28.644 186.971 28.4573 186.299 28.084C185.627 27.7 185.099 27.1667 184.715 26.484C184.331 25.7907 184.139 24.9907 184.139 24.084C184.139 23.188 184.337 22.3933 184.731 21.7C185.126 21.0067 185.665 20.4733 186.347 20.1C187.03 19.7267 187.793 19.54 188.635 19.54C189.478 19.54 190.241 19.7267 190.923 20.1C191.606 20.4733 192.145 21.0067 192.539 21.7C192.934 22.3933 193.131 23.188 193.131 24.084C193.131 24.98 192.929 25.7747 192.523 26.468C192.118 27.1613 191.563 27.7 190.859 28.084C190.166 28.4573 189.398 28.644 188.555 28.644ZM188.555 27.06C189.025 27.06 189.462 26.948 189.867 26.724C190.283 26.5 190.619 26.164 190.875 25.716C191.131 25.268 191.259 24.724 191.259 24.084C191.259 23.444 191.137 22.9053 190.891 22.468C190.646 22.02 190.321 21.684 189.915 21.46C189.51 21.236 189.073 21.124 188.603 21.124C188.134 21.124 187.697 21.236 187.291 21.46C186.897 21.684 186.582 22.02 186.347 22.468C186.113 22.9053 185.995 23.444 185.995 24.084C185.995 25.0333 186.235 25.7693 186.715 26.292C187.206 26.804 187.819 27.06 188.555 27.06ZM206.774 19.684L204.038 28.5H202.118L200.342 21.988L198.566 28.5H196.646L193.894 19.684H195.75L197.59 26.772L199.462 19.684H201.366L203.158 26.74L204.982 19.684H206.774ZM210.426 17.38L210.218 25.14H208.698L208.49 17.38H210.426ZM209.514 28.612C209.183 28.612 208.906 28.5 208.682 28.276C208.458 28.052 208.346 27.7747 208.346 27.444C208.346 27.1133 208.458 26.836 208.682 26.612C208.906 26.388 209.183 26.276 209.514 26.276C209.834 26.276 210.106 26.388 210.33 26.612C210.554 26.836 210.666 27.1133 210.666 27.444C210.666 27.7747 210.554 28.052 210.33 28.276C210.106 28.5 209.834 28.612 209.514 28.612Z" fill="white"/>
<rect x="223" y="4.5" width="36" height="36" rx="18" fill="white"/>
<path d="M233.99 29.5105L248.01 15.4896M248.01 15.4896L240.641 15.4358M248.01 15.4896L248.064 22.8586" stroke="black" stroke-width="1.25"/>
</g>
<defs>
<filter id="filter0_d_147_2148" x="0" y="0" width="271" height="53" filterUnits="userSpaceOnUse" color-interpolation-filters="sRGB">
<feFlood flood-opacity="0" result="BackgroundImageFix"/>
<feColorMatrix in="SourceAlpha" type="matrix" values="0 0 0 0 0 0 0 0 0 0 0 0 0 0 0 0 0 0 127 0" result="hardAlpha"/>
<feOffset dy="4"/>
<feGaussianBlur stdDeviation="2"/>
<feComposite in2="hardAlpha" operator="out"/>
<feColorMatrix type="matrix" values="0 0 0 0 0 0 0 0 0 0 0 0 0 0 0 0 0 0 0.25 0"/>
<feBlend mode="normal" in2="BackgroundImageFix" result="effect1_dropShadow_147_2148"/>
<feBlend mode="normal" in="SourceGraphic" in2="effect1_dropShadow_147_2148" result="shape"/>
</filter>
</defs>
</svg>
